<svg width="256" height="256" viewBox="0 0 256 256" fill="none" xmlns="http://www.w3.org/2000/svg">
  <rect width="256" height="256" fill="transparent"/>
  <path
    d="M51.4497 35.9178C80.2449 14.4072 122.972 8.88289 164.679 15.9729C202.854 22.4621 234.733 45.7624 244.488 81.3164C254.14 116.497 244.401 157.073 222.207 189.338C200.786 220.48 165.613 242.368 127.458 242.852C89.5589 243.333 49.2213 223.109 26.934 191.271C4.23592 158.846 0.382578 114.54 14.7145 79.1783C22.5489 59.8455 34.0678 48.9016 51.4497 35.9178Z"
    fill="#B92E17"
  />
  <path
    d="M209.742 37.7129C225.182 50.2937 236.452 67.9917 239.629 88.9572C244.753 122.76 230.548 158.936 205.946 182.709C181.344 206.482 147.233 217.9 113.19 216.452C84.1801 215.218 55.2688 204.587 35.7794 183.987C51.3111 193.625 69.9258 198.675 88.294 199.837C122.418 201.997 157.611 190.135 183.501 167.8C200.696 152.965 214.446 132.586 218.142 109.663C220.823 93.0351 218.559 72.5615 209.742 37.7129Z"
    fill="#E45433"
    fill-opacity="0.48"
  />
  <text
    x="128"
    y="153"
    text-anchor="middle"
    font-family="Epilogue, Inter, Arial, sans-serif"
    font-size="118"
    font-weight="900"
    letter-spacing="-12"
    fill="white"
  >
    es
  </text>
</svg>
